<svg xmlns="http://www.w3.org/2000/svg" viewBox="0 0 64 64"><g data-name="17-Coding"><path style="fill:#979faf" d="M19 59h26v3H19z"/><path style="fill:#adb2c7" d="m40 50 5 9H19l5-9h16z"/><path d="M63 4v38H1V4a2.006 2.006 0 0 1 2-2h58a2.006 2.006 0 0 1 2 2z" style="fill:#8dd5f6"/><path d="M63 42v6a2.006 2.006 0 0 1-2 2H3a2.006 2.006 0 0 1-2-2v-6z" style="fill:#dfe1ea"/><path d="M61 2H3a2.006 2.006 0 0 0-2 2v14.844A26.743 26.743 0 0 0 9.2 20c7.6 0 7.6-2 15.2-2s7.6 2 15.2 2 7.6-2 15.2-2a26.787 26.787 0 0 1 8.2 1.157V4a2.006 2.006 0 0 0-2-2z" style="fill:#aedff7"/><path d="M61 2H3a2.006 2.006 0 0 0-2 2v7.844A26.743 26.743 0 0 0 9.2 13c7.6 0 7.6-2 15.2-2s7.6 2 15.2 2 7.6-2 15.2-2a26.787 26.787 0 0 1 8.2 1.157V4a2.006 2.006 0 0 0-2-2z" style="fill:#f6fafd"/><path d="m24 50-1.832 3.3a25.289 25.289 0 0 0 6.432.7c6.6 0 7.475-1.507 12.57-1.9L40 50z" style="fill:#7e8596"/><path d="M61 1H3a3 3 0 0 0-3 3v44a3 3 0 0 0 3 3h19.3l-4.175 7.514A1 1 0 0 0 18 59v2h-2v2h32v-2h-2v-2a1 1 0 0 0-.126-.486L41.7 51H61a3 3 0 0 0 3-3V4a3 3 0 0 0-3-3zM3 3h58a1 1 0 0 1 1 1v37H2V4a1 1 0 0 1 1-1zm17 58v-1h24v1zm23.3-3H20.7l3.888-7h14.824zM61 49H3a1 1 0 0 1-1-1v-5h60v5a1 1 0 0 1-1 1z"/><path d="M16 34a8.009 8.009 0 0 0 8-8h-2a6 6 0 0 1-12 0v-8a6 6 0 0 1 12 0h2a8 8 0 0 0-16 0v8a8.009 8.009 0 0 0 8 8zM29 26h2v-3h3v-2h-3v-3h-2v3h-3v2h3v3zM40 26h2v-3h3v-2h-3v-3h-2v3h-3v2h3v3zM38 36h21v2H38zM38 32h21v2H38zM38 10h21v2H38zM38 6h21v2H38zM54 28h5v2h-5zM47 28h5v2h-5zM54 14h5v2h-5zM47 14h5v2h-5z"/></g></svg>