<svg xmlns="http://www.w3.org/2000/svg" viewBox="0 0 64 64"><defs><style>.cls-1{fill:#dfe1ea}.cls-2{fill:#adb2c7}.cls-5{fill:#fff}</style></defs><g id="_18-Programming" data-name="18-Programming"><path class="cls-1" d="M63 11v50a2.006 2.006 0 0 1-2 2H3a2.006 2.006 0 0 1-2-2V11z"/><path class="cls-2" d="M61 1a2.006 2.006 0 0 1 2 2v8H1V3a2.006 2.006 0 0 1 2-2z"/><path d="M39.6 21c-7.6 0-7.6-2-15.2-2s-7.6 2-15.2 2A26.743 26.743 0 0 1 1 19.844v8A26.743 26.743 0 0 0 9.2 29c7.6 0 7.6-2 15.2-2s7.6 2 15.2 2 7.6-2 15.2-2a26.787 26.787 0 0 1 8.2 1.157v-8A26.787 26.787 0 0 0 54.8 19c-7.6 0-7.6 2-15.2 2z" style="fill:#cdd2e1"/><path d="M1 11v8.844A26.743 26.743 0 0 0 9.2 21c7.6 0 7.6-2 15.2-2s7.6 2 15.2 2 7.6-2 15.2-2a26.787 26.787 0 0 1 8.2 1.157V11z" style="fill:#f6fafd"/><path class="cls-2" d="M59.7 17H39.3a1.3 1.3 0 0 0-1.3 1.3v15.4a1.3 1.3 0 0 1-1.3 1.3h-6.4a1.3 1.3 0 0 1-1.3-1.3V18.3a1.3 1.3 0 0 0-1.3-1.3H7.3A1.3 1.3 0 0 0 6 18.3v22.4A1.3 1.3 0 0 0 7.3 42h13.4a1.3 1.3 0 0 1 1.3 1.3v15.4a1.3 1.3 0 0 0 1.3 1.3h20.4a1.3 1.3 0 0 0 1.3-1.3V43.3a1.3 1.3 0 0 1 1.3-1.3h13.4a1.3 1.3 0 0 0 1.3-1.3V18.3a1.3 1.3 0 0 0-1.3-1.3z"/><path class="cls-5" d="M22 43h20v14H22z"/><path style="fill:#ffa426" d="M22 35h20v8H22z"/><path class="cls-1" d="M25 46h14v8H25z"/><path class="cls-5" d="M6 25h20v14H6z"/><path style="fill:#8dd5f6" d="M6 17h20v8H6z"/><path class="cls-1" d="M9 28h14v8H9z"/><path class="cls-5" d="M38 25h20v14H38z"/><path style="fill:#73c6b2" d="M38 17h20v8H38z"/><path class="cls-1" d="M41 28h14v8H41z"/><path class="cls-5" d="M5 5h2v2H5zM14 5h45v2H14zM9 20h2v2H9zM41 20h2v2h-2zM31 49h2v2h-2z"/><path d="M61 0H3a3 3 0 0 0-3 3v58a3 3 0 0 0 3 3h58a3 3 0 0 0 3-3V3a3 3 0 0 0-3-3zM3 2h58a1 1 0 0 1 1 1v7H2V3a1 1 0 0 1 1-1zm58 60H3a1 1 0 0 1-1-1V12h60v49a1 1 0 0 1-1 1z"/><path d="M9 5h2v2H9zM58 16H38a1 1 0 0 0-1 1v17H27V17a1 1 0 0 0-1-1H6a1 1 0 0 0-1 1v22a1 1 0 0 0 1 1h15v17a1 1 0 0 0 1 1h20a1 1 0 0 0 1-1V40h15a1 1 0 0 0 1-1V17a1 1 0 0 0-1-1zm-1 2v6H39v-6zm-32 0v6H7v-6zM7 26h18v12H7zm16 30V44h18v12zm18-14H23v-2h3a1 1 0 0 0 1-1v-3h10v3a1 1 0 0 0 1 1h3zm-2-4V26h18v12z"/><path d="M13 20h2v2h-2zM45 20h2v2h-2zM15.228 42.366a1 1 0 0 0-.209.829c.163.826.3 2.772-.309 3.514A.81.81 0 0 1 14 47a1 1 0 0 0-1 1v2a1 1 0 0 0 1 1 .81.81 0 0 1 .71.291c.611.742.472 2.688.309 3.514A1 1 0 0 0 16 56h2v-2h-.865a5.871 5.871 0 0 0-.877-3.977A2.715 2.715 0 0 0 15 49.155v-.31a2.715 2.715 0 0 0 1.258-.868A5.871 5.871 0 0 0 17.135 44H18v-2h-2a1 1 0 0 0-.772.366zM50 47a.812.812 0 0 1-.71-.291c-.61-.742-.472-2.688-.31-3.514A1 1 0 0 0 48 42h-2v2h.865a5.865 5.865 0 0 0 .877 3.977 2.715 2.715 0 0 0 1.258.868v.31a2.715 2.715 0 0 0-1.258.868A5.865 5.865 0 0 0 46.865 54H46v2h2a1 1 0 0 0 .98-1.2c-.162-.826-.3-2.772.31-3.514A.812.812 0 0 1 50 51a1 1 0 0 0 1-1v-2a1 1 0 0 0-1-1zM36 49h2v2h-2zM26 49h2v2h-2z"/></g></svg>