<svg xmlns="http://www.w3.org/2000/svg" viewBox="0 0 512 512" style="enable-background:new 0 0 512 512" xml:space="preserve"><path style="fill:#eae8e8" d="M294.39 164.72C210.072 80.403 111.491 36.449 50.69 50.688c-14.242 60.804 29.712 159.383 114.032 243.7 51.243 51.246 107.752 87.578 157.849 105.002l28.205-28.205-57.391-57.391c-5.638-5.636-5.636-14.772 0-20.411 5.636-5.636 14.772-5.636 20.411 0l57.389 57.391 28.205-28.203c-15.388-44.241-45.519-93.478-87.642-139.677"/><path style="fill:#f57555" d="m350.776 371.185-23.952 23.952c14.686 6.556 31.796 5.926 46.01-1.894l-22.058-22.058zM371.185 350.775l22.058 22.06c7.82-14.215 8.452-31.326 1.896-46.012l-23.954 23.952z"/><path style="fill:#6ac6d8" d="m326.268 346.675-38.198 38.198c11.735 5.756 23.278 10.614 34.5 14.518l28.205-28.205-24.507-24.511zM346.677 326.267l24.509 24.509 28.205-28.203c-3.904-11.22-8.764-22.765-14.518-34.5l-38.196 38.194z"/><path style="fill:#f57555" d="M215.158 142.024c-20.196-20.196-52.941-20.196-73.135 0-20.198 20.196-20.196 52.937 0 73.135 20.196 20.194 52.937 20.196 73.135-.002 20.194-20.196 20.194-52.939 0-73.133zm-19.825 53.308c-9.246 9.246-24.239 9.246-33.485 0-9.246-9.246-9.246-24.239 0-33.485 9.246-9.244 24.239-9.244 33.485.002a23.557 23.557 0 0 1 6.457 12c1.532 7.524-.621 15.648-6.457 21.483zM113.255 113.254c16.296-16.298 34.094-30.087 52.866-41.381C122.428 51.287 81.657 43.438 50.69 50.688c-7.254 30.97.599 71.74 21.182 115.431 11.294-18.771 25.083-36.569 41.383-52.865z"/><path style="fill:#3e495a" d="M403.086 382.676c5.636 5.636 5.636 14.775 0 20.411-5.636 5.636-14.775 5.636-20.409 0l-89.292-89.292c-5.638-5.636-5.636-14.772 0-20.411 5.636-5.636 14.772-5.636 20.411 0l89.29 89.292zM353.279 234.792c18.35 26.396 32.657 52.815 42.446 77.869l108.186-17.305c-62.223-62.22-139.458-61.079-150.632-60.564zM234.791 353.28c-.515 11.174-1.654 88.411 60.565 150.629l17.303-108.181c-25.05-9.789-51.469-24.1-77.868-42.448z"/><path style="fill:#231f20" d="M156.127 156.126c-6.001 6.001-9.304 13.979-9.304 22.463s3.304 16.464 9.304 22.463c6 6 13.979 9.304 22.463 9.304 8.485 0 16.464-3.304 22.463-9.304a31.705 31.705 0 0 0 8.664-28.815 31.64 31.64 0 0 0-8.664-16.111c-6.002-6.001-13.979-9.305-22.464-9.305-8.485.002-16.46 3.306-22.462 9.305zm37.736 19.337a15.56 15.56 0 0 1-4.25 14.148 15.479 15.479 0 0 1-11.022 4.565 15.484 15.484 0 0 1-11.022-4.565 15.479 15.479 0 0 1-4.565-11.022c0-4.164 1.621-8.078 4.564-11.022 2.945-2.944 6.858-4.564 11.022-4.564s8.078 1.622 11.023 4.566a15.504 15.504 0 0 1 4.25 7.894z"/><path style="fill:#231f20" d="M136.304 136.303c-23.318 23.316-23.318 61.256 0 84.577 11.296 11.295 26.313 17.514 42.286 17.514 15.975 0 30.992-6.222 42.289-17.518 23.316-23.318 23.316-61.257 0-84.573-11.296-11.296-26.315-17.515-42.289-17.515s-30.993 6.221-42.286 17.515zm73.133 73.133c-8.24 8.241-19.195 12.779-30.848 12.779-11.652 0-22.606-4.537-30.846-12.776-17.009-17.012-17.009-44.687 0-61.695 8.239-8.239 19.193-12.777 30.846-12.777 11.654 0 22.609 4.538 30.848 12.778 17.009 17.007 17.009 44.682 0 61.691z"/><path style="fill:#231f20" d="M509.63 289.635c-58.498-58.495-130.436-63.042-151.091-63.042-.409 0-.796.002-1.173.005-11.86-16.747-25.154-33.265-39.64-49.154a8.088 8.088 0 0 0-11.429-.527 8.088 8.088 0 0 0-.527 11.429c28.613 31.382 52.375 65.19 69.242 98.145l-28.335 28.335-27.161-27.162a23.053 23.053 0 0 0-1.696-1.532c-.087-.071-.18-.129-.269-.2a22.784 22.784 0 0 0-1.563-1.148c-.014-.01-.029-.017-.044-.026a22.369 22.369 0 0 0-12.355-3.689 22.368 22.368 0 0 0-12.365 3.697c-.011.008-.023.013-.035.021-.538.357-1.058.746-1.567 1.151-.086.069-.178.126-.264.196-.586.479-1.153.989-1.696 1.532a23.053 23.053 0 0 0-1.532 1.696c-.072.09-.133.184-.204.274-.401.507-.79 1.023-1.143 1.558-.012.017-.021.036-.031.053a22.365 22.365 0 0 0-3.686 12.345 22.366 22.366 0 0 0 3.66 12.306c.022.032.039.067.06.099.344.519.721 1.017 1.109 1.509.083.105.153.217.237.32.479.585.988 1.151 1.53 1.692l27.161 27.161-28.355 28.356c-15.556-7.948-31.297-17.439-47.061-28.395-.137-.095-.284-.169-.426-.256-23.503-16.39-46.658-35.829-68.541-57.713-38.722-38.722-69.488-81.533-89.308-122.119a268.407 268.407 0 0 1 85.416-85.414c40.586 19.82 83.397 50.584 122.119 89.307a8.09 8.09 0 0 0 11.441-11.441C217.192 76.083 118.848 29.61 53.324 41.881L13.811 2.37a8.094 8.094 0 0 0-11.442.001 8.089 8.089 0 0 0 .001 11.44l39.512 39.51c-2.2 11.732-2.538 24.567-1.045 38.311.041.378.074.751.118 1.129.015.131.033.263.05.395 7.236 61.889 50.565 139.522 117.997 206.952 21.567 21.568 44.376 40.852 67.596 57.323-.072 9.648.748 29.614 7.124 54.063 9.884 37.899 28.697 70.916 55.916 98.134a8.088 8.088 0 0 0 8.214 1.975 8.091 8.091 0 0 0 5.495-6.418l15.746-98.447c.273.096.548.198.821.293a8.09 8.09 0 0 0 8.379-1.92l.53-.53a59.514 59.514 0 0 0 19.105 3.13h.003c7.99 0 15.903-1.633 23.221-4.711l5.804 5.804c4.253 4.253 9.91 6.597 15.926 6.597s11.672-2.343 15.927-6.596c8.781-8.783 8.781-23.071 0-31.852l-5.799-5.799c5.623-13.386 6.183-28.534 1.562-42.323l.54-.54a8.089 8.089 0 0 0 1.921-8.378c-.095-.272-.197-.548-.293-.82l98.449-15.748a8.09 8.09 0 0 0 4.441-13.71zM107.535 107.534a285.385 285.385 0 0 0-34.329 41.492 279.987 279.987 0 0 1-5.718-14.887c-.386-1.109-.772-2.218-1.139-3.318-.141-.422-.287-.845-.426-1.265-8.881-27.139-11.813-51.882-8.371-72.003a93.167 93.167 0 0 1 4.145-.612l.097-.012c4.248-.527 8.693-.794 13.297-.794 14.766 0 31.242 2.726 48.77 7.995.293.088.587.176.881.266.943.287 1.892.591 2.841.893 7.018 2.249 14.177 4.895 21.442 7.92a285.19 285.19 0 0 0-41.49 34.325zM382.44 301.945c.164.366.33.732.493 1.098.378.849.75 1.697 1.116 2.544a300.756 300.756 0 0 1 2.019 4.767c.167.403.337.808.502 1.21.197.484.387.966.581 1.45.297.738.595 1.477.885 2.211.107.271.217.544.323.814a282.573 282.573 0 0 1 1.686 4.438l-18.858 18.856-13.067-13.067 24.32-24.321zm-80.505 80.504 24.331-24.331 13.068 13.068-18.231 18.231a.03.03 0 0 1-.008.008l-.621.621a281.24 281.24 0 0 1-8.786-3.422c-.145-.059-.289-.114-.434-.174a312.494 312.494 0 0 1-9.319-4.001zm-11.931 103.706c-37.184-43.944-45.281-92.981-46.867-117.507 17.672 11.421 35.469 21.146 53.034 28.954l.005.002c2.069.919 4.133 1.81 6.195 2.675l.06.026 1.136.478.084.036-13.647 85.336zm57.926-94.622h-.002c-1.918 0-3.816-.122-5.691-.366l8.54-8.54 7.633 7.632a43.819 43.819 0 0 1-10.48 1.274zm49.435 5.833a6.301 6.301 0 0 1-4.484 1.859 6.284 6.284 0 0 1-4.482-1.859l-10.726-10.726-21.174-21.174-13.08-13.08-11.429-11.43-.011-.01-32.874-32.874c-2.472-2.471-2.471-6.495.001-8.968.309-.309.641-.578.991-.809.003-.002.007-.003.01-.007a6.363 6.363 0 0 1 6.965-.001c.004.002.008.004.012.008.351.231.683.5.99.808l32.862 32.863.018.021 24.509 24.509.011.01 22.047 22.049a.2.2 0 0 0 .015.013l9.828 9.829a6.348 6.348 0 0 1 .001 8.969zm-6.208-55.121a44.105 44.105 0 0 1-.902 16.157l-7.628-7.628 2.48-2.48 6.05-6.049zm9.659-38.591c-.077-.184-.162-.37-.238-.556a333.41 333.41 0 0 0-7.366-16.357c-.358-.744-.711-1.487-1.075-2.233-.033-.069-.078-.132-.113-.198-6.699-13.646-14.506-27.412-23.424-41.203 24.342 1.541 73.468 9.574 117.559 46.895l-85.343 13.652z"/><g style="opacity:.1"><path style="fill:#231f20" d="M66.297 48.363c-5.433.397-10.648 1.165-15.607 2.326-14.242 60.804 29.712 159.383 114.032 243.7 51.243 51.246 107.752 87.578 157.849 105.002l17.933-17.933c-50.097-17.425-106.605-53.757-157.849-105.002C105.212 199.015 61.827 109.55 66.297 48.363z"/></g></svg>