<svg xmlns="http://www.w3.org/2000/svg" xml:space="preserve" width="655.359" height="655.359" style="shape-rendering:geometricPrecision;text-rendering:geometricPrecision;image-rendering:optimizeQuality;fill-rule:evenodd;clip-rule:evenodd" viewBox="0 0 6.827 6.827"><defs><style>.fil0{fill:#64b5f6;fill-rule:nonzero}</style></defs><g id="Layer_x0020_1"><g id="_459870352"><path id="_459870544" class="fil0" d="m1.696 5.013-.343-.061a.43.43 0 0 1 .164-.251.585.585 0 0 1 .345-.088c.17 0 .294.032.37.096a.3.3 0 0 1 .068.393.393.393 0 0 1-.14.12.42.42 0 0 1 .116.044.283.283 0 0 1 .101.106.319.319 0 0 1 .036.156c0 .076-.02.15-.06.22a.402.402 0 0 1-.172.16.658.658 0 0 1-.295.057.772.772 0 0 1-.281-.042.424.424 0 0 1-.17-.122.565.565 0 0 1-.102-.203l.363-.048c.014.073.037.123.067.152.03.028.068.042.114.042.049 0 .09-.018.122-.054a.205.205 0 0 0 .049-.142A.2.2 0 0 0 2 5.407a.167.167 0 0 0-.127-.05.47.47 0 0 0-.118.021l.019-.26c.02.004.036.005.047.005a.166.166 0 0 0 .12-.045.144.144 0 0 0 .047-.108.13.13 0 0 0-.036-.096.132.132 0 0 0-.098-.035.145.145 0 0 0-.104.038c-.027.026-.045.072-.055.136zm.902.566h.388v.364h-.388v-.364zm1.395-.966v1.33h-.367v-.871a1.12 1.12 0 0 1-.382.19v-.298a.888.888 0 0 0 .288-.144.59.59 0 0 0 .16-.207h.301zm1.02 1.085H4.35V5.4l.662-.787h.316v.804h.164v.281H5.33v.245h-.316v-.245zm0-.281v-.411l-.35.41h.35z"/><path id="_459870880" d="M4.305 1.32h-.528l-.304 1.413c-.029.143-.05.258-.065.348-.015.089-.022.155-.022.198 0 .111.023.19.068.238.046.048.121.071.228.071.033 0 .071-.002.116-.007.044-.004.102-.012.174-.021l-.087.409a1.441 1.441 0 0 1-.322.046c-.228 0-.4-.05-.518-.147-.116-.1-.175-.246-.175-.439 0-.09.01-.203.03-.343.02-.138.064-.364.13-.675l.231-1.09h-.945l-.563 2.648h-.525l.566-2.649h-.119a.318.318 0 0 0-.244.093.526.526 0 0 0-.113.293H.853c.055-.322.15-.542.29-.663.137-.12.366-.181.686-.181h2.578l-.102.458z" style="fill:#424242;fill-rule:nonzero"/><path id="_459870496" class="fil0" d="M4.623 2.016h1.35v.281h-1.35z"/><path id="_459870232" class="fil0" d="M4.623 2.58h1.35v.28h-1.35z"/></g></g><path style="fill:none" d="M0 0h6.827v6.827H0z"/></svg>